PathFileType	4	(X/Y/Z)	Walk1.trc
DataRate	CameraRate	NumFrames	NumMarkers	Units	OrigDataRate	OrigDataStartFrame	OrigNumFrames
200.000000	200.000000	8	59	mm	200.000000	479	610
Frame#	Times		LFHD		RFHD		CLAV		STRN		LASI		RASI		RACR1		RUA1		RElbow		RElbowM		RFA1		RWRR		RWRU		RCAR		LACR1		LUA1		LElbow		LFA1		LWRR		LWRU		LCAR		RTH2		RTB1		RTB2		LTH1		LTH3		LTH2		LMFC		LTB1		LTB2		LTB4		LMT1		LToe		LLFC		LMT5		RTH3		LTB3		RTB4		RTB3		RMFC		LTH4		RTH4		RToe		RTH1		RMMAL		RLFC		RBHD		RMT1		RCAL		RBack		LMMAL		LLMAL		RPSI		C7		T10		LPSI		LCAL		LBHD		LElbowM
			X1	Y1	Z1	X2	Y2	Z2	X3	Y3	Z3	X4	Y4	Z4	X5	Y5	Z5	X6	Y6	Z6	X7	Y7	Z7	X8	Y8	Z8	X9	Y9	Z9	X10	Y10	Z10	X11	Y11	Z11	X12	Y12	Z12	X13	Y13	Z13	X14	Y14	Z14	X15	Y15	Z15	X16	Y16	Z16	X17	Y17	Z17	X18	Y18	Z18	X19	Y19	Z19	X20	Y20	Z20	X21	Y21	Z21	X22	Y22	Z22	X23	Y23	Z23	X24	Y24	Z24	X25	Y25	Z25	X26	Y26	Z26	X27	Y27	Z27	X28	Y28	Z28	X29	Y29	Z29	X30	Y30	Z30	X31	Y31	Z31	X32	Y32	Z32	X33	Y33	Z33	X34	Y34	Z34	X35	Y35	Z35	X36	Y36	Z36	X37	Y37	Z37	X38	Y38	Z38	X39	Y39	Z39	X40	Y40	Z40	X41	Y41	Z41	X42	Y42	Z42	X43	Y43	Z43	X44	Y44	Z44	X45	Y45	Z45	X46	Y46	Z46	X47	Y47	Z47	X48	Y48	Z48	X49	Y49	Z49	X50	Y50	Z50	X51	Y51	Z51	X52	Y52	Z52	X53	Y53	Z53	X54	Y54	Z54	X55	Y55	Z55	X56	Y56	Z56	X57	Y57	Z57	X58	Y58	Z58	X59	Y59	Z59

479	2.395	906.25	1667.7	82.482	909.24	1658.6	-16.179	917.09	1401.2	55.8	985.18	1242.1	57.929	871.72	983.86	-112.02	870.88	990.6	251.54	797.64	1485.5	223.34	794.9	1324	350.77	838.82	1188.6	415.25	802.08	1100.1	323.59	921.99	1062.7	422.24	982.3	962.88	347.22	979.55	964.32	429.35	1041.6	902.3	393.21	801.67	1462.5	-128.61	739.98	1294.7	-209.63	694.62	1133.6	-248.75	687.99	993.26	-255.08	718.61	864.12	-194.08	665.37	855.74	-246.77	701.74	774.26	-222.91	798.65	686.55	243.06	727.01	361.18	149.63	681.88	280.25	200.26	871.93	765.92	-144.48	942.24	609.96	-124.35	955.55	713.48	-111.24	974.05	521.46	34.082	1059.4	443.44	-74.7	1055.5	347.25	-115.38	1087.2	364.06	-64.383	1252.2	126.68	-62.171	1287.7	149.06	-105.49	951.7	529.76	-122.67	1202	83.161	-127.73	734.81	603.61	244.05	1109	279.87	-55.732	695.3	280.48	140.29	665.11	200.46	130.69	684.84	499.02	76.758	906.03	688.73	-135.93	741.92	687.78	258.44	756.15	28.963	133.64	747.61	773.05	274.25	583.89	82.779	70.301	700.47	488.9	231.07	764.27	1571	-26.037	706.81	25.681	100.84	487.44	56.08	114.91	659.82	1360.3	169.62	1117.2	116.53	20.723	1087.4	97.387	-60.603	612.53	1037.4	94.496	725.6	1480.3	51.691	663.4	1165.3	58.992	627.37	1031.5	11.817	1062.6	46.952	-1.151	774.57	1590.8	123.3	625.98	1098.5	-149.84
480	2.4	912.61	1666.4	81.537	915.62	1657.1	-17.117	923.52	1399.8	55.22	991.57	1240.7	57.636	878.31	982.08	-112.25	876.2	989.46	251.86	803.91	1484.3	222.53	801.31	1322.8	350.09	845.61	1187.7	414.71	809.16	1099	323.06	929.41	1062.3	421.52	990.15	962.84	346.37	987.49	964.23	428.5	1049.9	902.59	392.26	808.33	1461.1	-129.35	746.03	1293.5	-210.3	699.99	1132.6	-249.3	692.74	992.23	-255.52	722.52	862.96	-194.28	669.46	854.82	-247.11	705.23	773.12	-223.02	802.84	685.43	242.95	729.23	360.33	149.51	683.44	279.75	200.09	878.31	764.46	-144.5	948.74	608.61	-124.2	962	712.14	-111.24	980.88	520.37	34.197	1067.4	443.55	-75.035	1064.8	347.2	-115.53	1096.5	364.59	-64.754	1265.6	129.9	-62.482	1300.7	152.77	-105.82	958.43	528.34	-122.57	1216	85.109	-127.86	738.39	602.91	243.82	1119.7	280.73	-56.081	696.95	279.84	140.16	666.24	200.04	130.54	688.32	498.52	76.471	912.48	687.34	-135.84	746.11	687.04	258.24	756.32	28.885	133.81	752.34	772.29	274.06	584.26	82.896	70.099	703.38	488.35	230.83	770.69	1569.5	-26.887	706.87	25.701	100.84	487.61	56.548	114.55	666.1	1359	168.72	1130.9	117.61	20.673	1101	97.819	-60.465	618.66	1036.3	93.407	732.03	1479	50.857	669.58	1164	58.047	633.75	1030.2	10.865	1077.3	47.03	-0.78204	780.96	1589.5	122.43	631.25	1097.8	-150.37
481	2.405	919	1665	80.563	922.02	1655.7	-18.083	929.97	1398.4	54.61	997.99	1239.2	57.32	884.93	980.31	-112.49	881.55	988.3	252.17	810.22	1483.1	221.69	807.76	1321.7	349.37	852.39	1186.8	414.14	816.21	1098	322.5	936.79	1061.8	420.77	997.92	962.77	345.49	995.38	964.09	427.62	1058.1	902.83	391.28	815.01	1459.6	-130.11	752.12	1292.2	-211	705.43	1131.5	-249.88	697.58	991.17	-255.98	726.55	861.77	-194.49	673.67	853.86	-247.49	708.87	771.96	-223.15	807.06	684.28	242.82	731.47	359.47	149.38	685.01	279.26	199.91	884.72	763.04	-144.56	955.31	607.31	-124.08	968.51	710.87	-111.3	987.9	519.37	34.263	1075.4	443.55	-75.395	1073.8	347.05	-115.66	1105.6	364.98	-65.124	1278.2	132.7	-62.75	1313.1	155.96	-106.12	965.24	526.97	-122.49	1229.2	86.746	-127.93	742.01	602.19	243.56	1130	281.43	-56.404	698.63	279.21	140.01	667.38	199.62	130.38	691.83	498.01	76.153	919	685.99	-135.79	750.35	686.28	258.02	756.5	28.81	133.97	757.13	771.5	273.84	584.64	83.026	69.888	706.33	487.79	230.57	777.13	1567.9	-27.765	706.94	25.72	100.83	487.79	57.048	114.16	672.41	1357.8	167.8	1143.9	118.57	20.702	1114	98.171	-60.24	624.82	1035.1	92.32	738.48	1477.7	49.992	675.79	1162.7	57.114	640.15	1028.8	9.9178	1091.2	47.106	-0.31141	787.37	1588.1	121.54	636.6	1097.1	-150.94
482	2.41	925.4	1663.7	79.56	928.45	1654.2	-19.077	936.46	1396.9	53.968	1004.4	1237.7	56.979	891.56	978.53	-112.74	886.96	987.12	252.47	816.57	1481.8	220.8	814.24	1320.6	348.62	859.17	1185.9	413.54	823.24	1096.9	321.92	944.14	1061.4	420	1005.6	962.65	344.58	1003.2	963.91	426.7	1066.2	903.02	390.26	821.71	1458.1	-130.91	758.25	1291	-211.71	710.94	1130.4	-250.49	702.53	990.07	-256.47	730.71	860.56	-194.72	678.01	852.86	-247.88	712.64	770.78	-223.3	811.33	683.12	242.65	733.75	358.61	149.22	686.59	278.78	199.71	891.18	761.65	-144.64	961.99	606.07	-123.99	975.11	709.66	-111.42	995.13	518.48	34.284	1083.3	443.44	-75.764	1082.6	346.79	-115.77	1114.5	365.21	-65.478	1290.1	134.99	-62.96	1324.7	158.57	-106.39	972.15	525.65	-122.43	1241.5	88.028	-127.93	745.68	601.47	243.28	1140	281.94	-56.686	700.32	278.57	139.84	668.54	199.21	130.21	695.36	497.49	75.807	925.59	684.69	-135.78	754.64	685.51	257.77	756.67	28.739	134.13	761.97	770.7	273.59	585.03	83.174	69.669	709.31	487.23	230.29	783.6	1566.4	-28.672	707.02	25.737	100.82	487.98	57.583	113.77	678.75	1356.5	166.88	1156.1	119.37	20.817	1126.1	98.412	-59.926	631.02	1033.8	91.241	744.94	1476.3	49.095	682.02	1161.3	56.194	646.58	1027.4	8.9805	1104.2	47.144	0.25307	793.81	1586.7	120.61	642.01	1096.3	-151.55
483	2.415	931.82	1662.3	78.528	934.89	1652.7	-20.102	942.97	1395.4	53.291	1010.9	1236.2	56.611	898.2	976.76	-113.01	892.42	985.94	252.75	822.96	1480.6	219.88	820.76	1319.5	347.85	865.96	1185	412.91	830.25	1095.9	321.3	951.45	1060.9	419.2	1013.3	962.49	343.65	1011	963.69	425.77	1074.2	903.15	389.21	828.44	1456.6	-131.73	764.41	1289.7	-212.46	716.52	1129.3	-251.13	707.57	988.94	-256.98	735	859.33	-194.99	682.47	851.82	-248.3	716.56	769.58	-223.48	815.64	681.95	242.47	736.04	357.74	149.03	688.18	278.3	199.48	897.7	760.3	-144.76	968.77	604.9	-123.94	981.8	708.53	-111.62	1002.6	517.71	34.263	1091.2	443.2	-76.128	1091.1	346.41	-115.84	1123.2	365.27	-65.797	1301.2	136.75	-63.096	1335.5	160.54	-106.6	979.17	524.41	-122.4	1252.9	88.918	-127.84	749.4	600.74	242.99	1149.5	282.23	-56.911	702.05	277.94	139.65	669.71	198.81	130.03	698.93	496.97	75.433	932.29	683.45	-135.81	758.97	684.72	257.5	756.85	28.67	134.28	766.87	769.88	273.32	585.43	83.343	69.442	712.32	486.67	229.98	790.09	1564.8	-29.609	707.1	25.753	100.81	488.19	58.161	113.37	685.13	1355.2	165.94	1167.5	119.97	21.024	1137.4	98.51	-59.527	637.26	1032.5	90.177	751.42	1475	48.164	688.28	1159.9	55.293	653.04	1026	8.0584	1116.3	47.11	0.90228	800.27	1585.3	119.65	647.48	1095.4	-152.2
484	2.42	938.26	1660.8	77.468	941.36	1651.1	-21.156	949.52	1393.9	52.577	1017.4	1234.7	56.214	904.88	975	-113.3	897.94	984.75	253.01	829.38	1479.4	218.92	827.32	1318.4	347.05	872.74	1184	412.26	837.23	1094.8	320.67	958.72	1060.3	418.37	1020.9	962.29	342.68	1018.7	963.43	424.8	1082.1	903.22	388.13	835.18	1455	-132.59	770.62	1288.4	-213.23	722.17	1128.1	-251.8	712.72	987.77	-257.51	739.42	858.08	-195.28	687.05	850.75	-248.75	720.62	768.35	-223.68	820	680.77	242.26	738.37	356.88	148.83	689.78	277.85	199.24	904.3	759.01	-144.91	975.67	603.8	-123.91	988.59	707.48	-111.88	1010.3	517.06	34.204	1099	442.83	-76.468	1099.5	345.91	-115.88	1131.7	365.15	-66.065	1311.5	137.91	-63.141	1345.6	161.83	-106.73	986.32	523.23	-122.39	1263.3	89.389	-127.66	753.18	600	242.68	1158.7	282.29	-57.062	703.8	277.31	139.45	670.89	198.43	129.83	702.52	496.43	75.034	939.08	682.27	-135.88	763.35	683.92	257.22	757.02	28.604	134.41	771.82	769.04	273.03	585.83	83.54	69.207	715.38	486.11	229.66	796.6	1563.2	-30.579	707.19	25.769	100.8	488.39	58.789	112.96	691.53	1353.9	164.99	1178.1	120.34	21.329	1147.9	98.439	-59.045	643.54	1031.2	89.134	757.91	1473.6	47.198	694.58	1158.5	54.412	659.52	1024.5	7.1562	1127.3	46.974	1.6261	806.74	1583.9	118.66	653.02	1094.5	-152.89
485	2.425	944.72	1659.4	76.378	947.85	1649.6	-22.24	956.09	1392.4	51.823	1024	1233.2	55.787	911.58	973.25	-113.62	903.54	983.54	253.23	835.84	1478.1	217.92	833.92	1317.3	346.23	879.52	1183.1	411.58	844.18	1093.7	320	965.96	1059.8	417.51	1028.4	962.05	341.69	1026.3	963.12	423.81	1089.9	903.24	387.02	841.93	1453.4	-133.49	776.87	1287	-214.03	727.89	1126.9	-252.5	717.96	986.56	-258.07	743.98	856.81	-195.61	691.76	849.64	-249.22	724.82	767.11	-223.91	824.4	679.57	242.03	740.72	356.02	148.61	691.39	277.41	198.97	910.98	757.76	-145.1	982.68	602.77	-123.91	995.49	706.52	-112.21	1018.2	516.53	34.111	1106.9	442.33	-76.767	1107.6	345.27	-115.86	1140	364.82	-66.262	1321	138.45	-63.078	1355	162.4	-106.77	993.6	522.13	-122.41	1272.9	89.426	-127.39	757.01	599.25	242.36	1167.4	282.1	-57.125	705.57	276.7	139.24	672.09	198.06	129.62	706.16	495.9	74.613	945.99	681.15	-135.98	767.78	683.11	256.91	757.2	28.541	134.54	776.82	768.18	272.73	586.25	83.768	68.965	718.48	485.56	229.31	803.13	1561.6	-31.582	707.28	25.783	100.78	488.61	59.473	112.54	697.97	1352.6	164.02	1187.8	120.43	21.737	1157.4	98.18	-58.483	649.87	1029.8	88.116	764.42	1472.2	46.196	700.92	1157.1	53.554	666.04	1023.1	6.2785	1137.4	46.708	2.4138	813.24	1582.4	117.63	658.62	1093.6	-153.61
486	2.43	951.2	1658	75.258	954.36	1648.1	-23.356	962.69	1390.9	51.029	1030.5	1231.7	55.327	918.31	971.52	-113.96	909.22	982.34	253.41	842.34	1476.9	216.88	840.57	1316.3	345.37	886.3	1182.2	410.87	851.1	1092.7	319.31	973.15	1059.2	416.63	1035.8	961.76	340.68	1033.8	962.77	422.8	1097.7	903.19	385.88	848.7	1451.8	-134.42	783.15	1285.6	-214.85	733.69	1125.7	-253.23	723.31	985.32	-258.66	748.68	855.51	-195.97	696.58	848.5	-249.72	729.17	765.83	-224.17	828.85	678.37	241.79	743.1	355.17	148.37	693.02	277	198.69	917.76	756.57	-145.33	989.82	601.81	-123.94	1002.5	705.62	-112.61	1026.3	516.11	33.986	1114.7	441.68	-77.01	1115.4	344.5	-115.78	1148.1	364.29	-66.375	1329.7	138.35	-62.892	1363.6	162.25	-106.69	1001	521.1	-122.44	1281.5	89.021	-127.01	760.91	598.49	242.02	1175.7	281.65	-57.086	707.38	276.1	139.01	673.31	197.71	129.41	709.84	495.36	74.171	953.01	680.09	-136.13	772.26	682.28	256.59	757.37	28.479	134.65	781.87	767.31	272.41	586.69	84.031	68.716	721.64	485.01	228.94	809.68	1559.9	-32.621	707.37	25.797	100.77	488.84	60.222	112.12	704.43	1351.3	163.05	1196.7	120.24	22.25	1166.1	97.716	-57.846	656.23	1028.4	87.128	770.93	1470.8	45.158	707.3	1155.7	52.72	672.59	1021.6	5.4296	1146.4	46.294	3.2537	819.75	1581	116.57	664.29	1092.6	-154.37
